# xmcd
#
# Track frame offsets: 
#        150
#        13622
#        24705
#        38823
#        45191
#        56857
#        66943
#        78766
#        91325
#        103711
#        115044
#        128608
#        143971
#        156459
#        168697
#        183573
#        196086
#
# Disc length: 2789 seconds
#
# Revision: 0
# Processed by: cddbd v1.5.2PL0 Copyright (c) Steve Scherf et al.
# Submitted via: ExactAudioCopy v0.99pb4
#
DISCID=e10ae311
DTITLE=J.J. Barnes - The Best Of - Baby Please Come Back Home
DYEAR=2000
DGENRE=Soul
TTITLE0=Baby Please Come Back Home
TTITLE1=Chains Of Love
TTITLE2=Forgive Me
TTITLE3=Now That I Got You Back
TTITLE4=Hold On To It
TTITLE5=Now She's Gone
TTITLE6=Sad Day A Coming
TTITLE7=I'll Keep Coming Back
TTITLE8=Our Love Is In The Pocket
TTITLE9=So Called Friends
TTITLE10=Now She's Gone
TTITLE11=Got To Get Rid Of You
TTITLE12=Snowflakes
TTITLE13=Sweet Sherry
TTITLE14=Help Me Help Me
TTITLE15=I Need A Change
TTITLE16=Welcome To The Club
EXTD=
EXTT0=
EXTT1=
EXTT2=
EXTT3=
EXTT4=
EXTT5=
EXTT6=
EXTT7=
EXTT8=
EXTT9=
EXTT10=
EXTT11=
EXTT12=
EXTT13=
EXTT14=
EXTT15=
EXTT16=
PLAYORDER=
